<mxfile host="Electron" agent="Mozilla/5.0 (Macintosh; Intel Mac OS X 10_15_7) AppleWebKit/537.36 (KHTML, like Gecko) draw.io/24.7.17 Chrome/128.0.6613.36 Electron/32.0.1 Safari/537.36" version="24.7.17">
  <diagram name="Pagina-1" id="BvzAI0JYxxz-Om-clRkZ">
    <mxGraphModel dx="1244" dy="902" grid="1" gridSize="10" guides="1" tooltips="1" connect="1" arrows="1" fold="1" page="1" pageScale="1" pageWidth="827" pageHeight="1169" math="0" shadow="0">
      <root>
        <mxCell id="0" />
        <mxCell id="1" parent="0" />
        <mxCell id="Y1dLoWXO-03WRQhrNPvf-77" value="" style="group" vertex="1" connectable="0" parent="1">
          <mxGeometry x="340" y="430" width="20" height="57.5" as="geometry" />
        </mxCell>
        <mxCell id="Y1dLoWXO-03WRQhrNPvf-78" value="" style="endArrow=none;html=1;rounded=0;fillColor=#60a917;strokeColor=#2D7600;" edge="1" parent="Y1dLoWXO-03WRQhrNPvf-77" source="Y1dLoWXO-03WRQhrNPvf-79">
          <mxGeometry width="50" height="50" relative="1" as="geometry">
            <mxPoint x="9.870000000000005" y="30" as="sourcePoint" />
            <mxPoint x="9.870000000000005" as="targetPoint" />
          </mxGeometry>
        </mxCell>
        <mxCell id="Y1dLoWXO-03WRQhrNPvf-79" value="" style="shape=waypoint;sketch=0;fillStyle=solid;size=6;pointerEvents=1;points=[];fillColor=#60a917;resizable=0;rotatable=0;perimeter=centerPerimeter;snapToPoint=1;strokeColor=#2D7600;fontColor=#ffffff;" vertex="1" parent="Y1dLoWXO-03WRQhrNPvf-77">
          <mxGeometry y="37.5" width="20" height="20" as="geometry" />
        </mxCell>
        <mxCell id="Y1dLoWXO-03WRQhrNPvf-80" value="" style="group" vertex="1" connectable="0" parent="1">
          <mxGeometry x="310" y="430" width="20" height="70" as="geometry" />
        </mxCell>
        <mxCell id="Y1dLoWXO-03WRQhrNPvf-81" value="" style="group" vertex="1" connectable="0" parent="Y1dLoWXO-03WRQhrNPvf-80">
          <mxGeometry width="20" height="57.5" as="geometry" />
        </mxCell>
        <mxCell id="Y1dLoWXO-03WRQhrNPvf-82" value="" style="endArrow=none;html=1;rounded=0;fillColor=#e51400;strokeColor=#B20000;" edge="1" parent="Y1dLoWXO-03WRQhrNPvf-81" source="Y1dLoWXO-03WRQhrNPvf-83">
          <mxGeometry width="50" height="50" relative="1" as="geometry">
            <mxPoint x="9.870000000000005" y="30" as="sourcePoint" />
            <mxPoint x="9.870000000000005" as="targetPoint" />
          </mxGeometry>
        </mxCell>
        <mxCell id="Y1dLoWXO-03WRQhrNPvf-83" value="" style="shape=waypoint;sketch=0;fillStyle=solid;size=6;pointerEvents=1;points=[];fillColor=#e51400;resizable=0;rotatable=0;perimeter=centerPerimeter;snapToPoint=1;strokeColor=#B20000;fontColor=#ffffff;" vertex="1" parent="Y1dLoWXO-03WRQhrNPvf-81">
          <mxGeometry y="37.5" width="20" height="20" as="geometry" />
        </mxCell>
        <mxCell id="Y1dLoWXO-03WRQhrNPvf-84" value="clk" style="text;html=1;align=center;verticalAlign=middle;whiteSpace=wrap;rounded=0;" vertex="1" parent="Y1dLoWXO-03WRQhrNPvf-80">
          <mxGeometry y="50" width="20" height="20" as="geometry" />
        </mxCell>
        <mxCell id="Y1dLoWXO-03WRQhrNPvf-1" value="" style="group" vertex="1" connectable="0" parent="1">
          <mxGeometry x="490" y="630" width="60" height="70" as="geometry" />
        </mxCell>
        <mxCell id="Y1dLoWXO-03WRQhrNPvf-2" value="" style="group" vertex="1" connectable="0" parent="Y1dLoWXO-03WRQhrNPvf-1">
          <mxGeometry x="20" width="20" height="57.5" as="geometry" />
        </mxCell>
        <mxCell id="Y1dLoWXO-03WRQhrNPvf-3" value="" style="endArrow=none;html=1;rounded=0;fillColor=#60a917;strokeColor=#2D7600;" edge="1" parent="Y1dLoWXO-03WRQhrNPvf-2" source="Y1dLoWXO-03WRQhrNPvf-4">
          <mxGeometry width="50" height="50" relative="1" as="geometry">
            <mxPoint x="9.870000000000005" y="30" as="sourcePoint" />
            <mxPoint x="9.870000000000005" as="targetPoint" />
          </mxGeometry>
        </mxCell>
        <mxCell id="Y1dLoWXO-03WRQhrNPvf-4" value="" style="shape=waypoint;sketch=0;fillStyle=solid;size=6;pointerEvents=1;points=[];fillColor=#60a917;resizable=0;rotatable=0;perimeter=centerPerimeter;snapToPoint=1;strokeColor=#2D7600;fontColor=#ffffff;" vertex="1" parent="Y1dLoWXO-03WRQhrNPvf-2">
          <mxGeometry y="37.5" width="20" height="20" as="geometry" />
        </mxCell>
        <mxCell id="Y1dLoWXO-03WRQhrNPvf-5" value="rst" style="text;html=1;align=center;verticalAlign=middle;whiteSpace=wrap;rounded=0;" vertex="1" parent="Y1dLoWXO-03WRQhrNPvf-1">
          <mxGeometry y="50" width="60" height="20" as="geometry" />
        </mxCell>
        <mxCell id="Y1dLoWXO-03WRQhrNPvf-6" value="" style="group" vertex="1" connectable="0" parent="1">
          <mxGeometry x="100" y="610" width="60" height="70" as="geometry" />
        </mxCell>
        <mxCell id="Y1dLoWXO-03WRQhrNPvf-7" value="" style="group" vertex="1" connectable="0" parent="Y1dLoWXO-03WRQhrNPvf-6">
          <mxGeometry x="20" width="20" height="57.5" as="geometry" />
        </mxCell>
        <mxCell id="Y1dLoWXO-03WRQhrNPvf-8" value="" style="endArrow=none;html=1;rounded=0;fillColor=#60a917;strokeColor=#2D7600;" edge="1" parent="Y1dLoWXO-03WRQhrNPvf-7" source="Y1dLoWXO-03WRQhrNPvf-9">
          <mxGeometry width="50" height="50" relative="1" as="geometry">
            <mxPoint x="9.870000000000005" y="30" as="sourcePoint" />
            <mxPoint x="9.870000000000005" as="targetPoint" />
          </mxGeometry>
        </mxCell>
        <mxCell id="Y1dLoWXO-03WRQhrNPvf-9" value="" style="shape=waypoint;sketch=0;fillStyle=solid;size=6;pointerEvents=1;points=[];fillColor=#60a917;resizable=0;rotatable=0;perimeter=centerPerimeter;snapToPoint=1;strokeColor=#2D7600;fontColor=#ffffff;" vertex="1" parent="Y1dLoWXO-03WRQhrNPvf-7">
          <mxGeometry y="37.5" width="20" height="20" as="geometry" />
        </mxCell>
        <mxCell id="Y1dLoWXO-03WRQhrNPvf-10" value="rst" style="text;html=1;align=center;verticalAlign=middle;whiteSpace=wrap;rounded=0;" vertex="1" parent="Y1dLoWXO-03WRQhrNPvf-6">
          <mxGeometry y="50" width="60" height="20" as="geometry" />
        </mxCell>
        <mxCell id="Y1dLoWXO-03WRQhrNPvf-16" value="" style="group" vertex="1" connectable="0" parent="1">
          <mxGeometry x="480" y="630" width="20" height="70" as="geometry" />
        </mxCell>
        <mxCell id="Y1dLoWXO-03WRQhrNPvf-17" value="" style="group" vertex="1" connectable="0" parent="Y1dLoWXO-03WRQhrNPvf-16">
          <mxGeometry width="20" height="57.5" as="geometry" />
        </mxCell>
        <mxCell id="Y1dLoWXO-03WRQhrNPvf-18" value="" style="endArrow=none;html=1;rounded=0;fillColor=#e51400;strokeColor=#B20000;" edge="1" parent="Y1dLoWXO-03WRQhrNPvf-17" source="Y1dLoWXO-03WRQhrNPvf-19">
          <mxGeometry width="50" height="50" relative="1" as="geometry">
            <mxPoint x="9.870000000000005" y="30" as="sourcePoint" />
            <mxPoint x="9.870000000000005" as="targetPoint" />
          </mxGeometry>
        </mxCell>
        <mxCell id="Y1dLoWXO-03WRQhrNPvf-19" value="" style="shape=waypoint;sketch=0;fillStyle=solid;size=6;pointerEvents=1;points=[];fillColor=#e51400;resizable=0;rotatable=0;perimeter=centerPerimeter;snapToPoint=1;strokeColor=#B20000;fontColor=#ffffff;" vertex="1" parent="Y1dLoWXO-03WRQhrNPvf-17">
          <mxGeometry y="37.5" width="20" height="20" as="geometry" />
        </mxCell>
        <mxCell id="Y1dLoWXO-03WRQhrNPvf-20" value="clk" style="text;html=1;align=center;verticalAlign=middle;whiteSpace=wrap;rounded=0;" vertex="1" parent="Y1dLoWXO-03WRQhrNPvf-16">
          <mxGeometry y="50" width="20" height="20" as="geometry" />
        </mxCell>
        <mxCell id="Y1dLoWXO-03WRQhrNPvf-31" value="" style="group" vertex="1" connectable="0" parent="1">
          <mxGeometry x="90" y="610" width="20" height="70" as="geometry" />
        </mxCell>
        <mxCell id="Y1dLoWXO-03WRQhrNPvf-32" value="" style="group" vertex="1" connectable="0" parent="Y1dLoWXO-03WRQhrNPvf-31">
          <mxGeometry width="20" height="57.5" as="geometry" />
        </mxCell>
        <mxCell id="Y1dLoWXO-03WRQhrNPvf-33" value="" style="endArrow=none;html=1;rounded=0;fillColor=#e51400;strokeColor=#B20000;" edge="1" parent="Y1dLoWXO-03WRQhrNPvf-32" source="Y1dLoWXO-03WRQhrNPvf-34">
          <mxGeometry width="50" height="50" relative="1" as="geometry">
            <mxPoint x="9.870000000000005" y="30" as="sourcePoint" />
            <mxPoint x="9.870000000000005" as="targetPoint" />
          </mxGeometry>
        </mxCell>
        <mxCell id="Y1dLoWXO-03WRQhrNPvf-34" value="" style="shape=waypoint;sketch=0;fillStyle=solid;size=6;pointerEvents=1;points=[];fillColor=#e51400;resizable=0;rotatable=0;perimeter=centerPerimeter;snapToPoint=1;strokeColor=#B20000;fontColor=#ffffff;" vertex="1" parent="Y1dLoWXO-03WRQhrNPvf-32">
          <mxGeometry y="37.5" width="20" height="20" as="geometry" />
        </mxCell>
        <mxCell id="Y1dLoWXO-03WRQhrNPvf-35" value="clk" style="text;html=1;align=center;verticalAlign=middle;whiteSpace=wrap;rounded=0;" vertex="1" parent="Y1dLoWXO-03WRQhrNPvf-31">
          <mxGeometry y="50" width="20" height="20" as="geometry" />
        </mxCell>
        <mxCell id="Y1dLoWXO-03WRQhrNPvf-36" value="UnitÃ  di controllo B" style="rounded=0;whiteSpace=wrap;html=1;" vertex="1" parent="1">
          <mxGeometry x="80" y="540" width="162.86" height="80" as="geometry" />
        </mxCell>
        <mxCell id="Y1dLoWXO-03WRQhrNPvf-37" value="MEM" style="rounded=0;whiteSpace=wrap;html=1;" vertex="1" parent="1">
          <mxGeometry x="274.2904347826087" y="320" width="85.71304347826086" height="120" as="geometry" />
        </mxCell>
        <mxCell id="Y1dLoWXO-03WRQhrNPvf-38" value="en_cnt" style="text;html=1;align=center;verticalAlign=middle;whiteSpace=wrap;rounded=0;" vertex="1" parent="1">
          <mxGeometry x="320" y="590" width="60" height="20" as="geometry" />
        </mxCell>
        <mxCell id="Y1dLoWXO-03WRQhrNPvf-39" value="&lt;font style=&quot;font-size: 15px;&quot;&gt;Counter&lt;/font&gt;&lt;div&gt;&lt;font style=&quot;font-size: 15px;&quot;&gt;mod_8&lt;/font&gt;&lt;/div&gt;" style="rounded=0;whiteSpace=wrap;html=1;movable=1;resizable=1;rotatable=1;deletable=1;editable=1;locked=0;connectable=1;" vertex="1" parent="1">
          <mxGeometry x="441.24645161290323" y="515" width="97.50193548387097" height="130" as="geometry" />
        </mxCell>
        <mxCell id="Y1dLoWXO-03WRQhrNPvf-40" value="address" style="text;html=1;align=center;verticalAlign=middle;whiteSpace=wrap;rounded=0;" vertex="1" parent="1">
          <mxGeometry x="370" y="380" width="60" height="20" as="geometry" />
        </mxCell>
        <mxCell id="Y1dLoWXO-03WRQhrNPvf-41" value="count" style="text;html=1;align=center;verticalAlign=middle;whiteSpace=wrap;rounded=0;" vertex="1" parent="1">
          <mxGeometry x="566.91" y="530" width="37.37" height="20" as="geometry" />
        </mxCell>
        <mxCell id="Y1dLoWXO-03WRQhrNPvf-42" value="&lt;font style=&quot;font-size: 10px;&quot;&gt;3&lt;/font&gt;" style="text;html=1;align=center;verticalAlign=middle;whiteSpace=wrap;rounded=0;rotation=-90;" vertex="1" parent="1">
          <mxGeometry x="524.41" y="440" width="42.5" height="20" as="geometry" />
        </mxCell>
        <mxCell id="Y1dLoWXO-03WRQhrNPvf-43" value="en_wr" style="text;html=1;align=center;verticalAlign=middle;whiteSpace=wrap;rounded=0;rotation=-90;" vertex="1" parent="1">
          <mxGeometry x="274.29" y="510" width="60" height="20" as="geometry" />
        </mxCell>
        <mxCell id="Y1dLoWXO-03WRQhrNPvf-44" value="" style="group;rotation=-90;" vertex="1" connectable="0" parent="1">
          <mxGeometry x="80" y="330" width="136.11" height="133.5" as="geometry" />
        </mxCell>
        <mxCell id="Y1dLoWXO-03WRQhrNPvf-46" value="" style="shape=waypoint;sketch=0;fillStyle=solid;size=6;pointerEvents=1;points=[];fillColor=#e1d5e7;resizable=0;rotatable=0;perimeter=centerPerimeter;snapToPoint=1;strokeColor=#000000;rotation=-90;" vertex="1" parent="Y1dLoWXO-03WRQhrNPvf-44">
          <mxGeometry x="19" y="19" width="20" height="20" as="geometry" />
        </mxCell>
        <mxCell id="Y1dLoWXO-03WRQhrNPvf-47" value="UART_B" style="rounded=0;whiteSpace=wrap;html=1;rotation=-90;" vertex="1" parent="Y1dLoWXO-03WRQhrNPvf-44">
          <mxGeometry x="-37.87" y="21.13" width="162.86" height="95.75" as="geometry" />
        </mxCell>
        <mxCell id="Y1dLoWXO-03WRQhrNPvf-48" value="DBOUT" style="text;html=1;align=center;verticalAlign=middle;whiteSpace=wrap;rounded=0;" vertex="1" parent="Y1dLoWXO-03WRQhrNPvf-44">
          <mxGeometry x="96.11" y="10" width="40" height="20" as="geometry" />
        </mxCell>
        <mxCell id="Y1dLoWXO-03WRQhrNPvf-56" value="" style="endArrow=classic;html=1;rounded=0;entryX=0.998;entryY=0.67;entryDx=0;entryDy=0;entryPerimeter=0;exitX=1;exitY=0.5;exitDx=0;exitDy=0;" edge="1" parent="1" source="Y1dLoWXO-03WRQhrNPvf-39" target="Y1dLoWXO-03WRQhrNPvf-37">
          <mxGeometry width="50" height="50" relative="1" as="geometry">
            <mxPoint x="560" y="570" as="sourcePoint" />
            <mxPoint x="410" y="410" as="targetPoint" />
            <Array as="points">
              <mxPoint x="560" y="580" />
              <mxPoint x="560" y="550" />
              <mxPoint x="560" y="400" />
              <mxPoint x="440" y="400" />
            </Array>
          </mxGeometry>
        </mxCell>
        <mxCell id="Y1dLoWXO-03WRQhrNPvf-57" value="//" style="edgeLabel;html=1;align=center;verticalAlign=middle;resizable=0;points=[];rotation=90;" vertex="1" connectable="0" parent="Y1dLoWXO-03WRQhrNPvf-56">
          <mxGeometry x="-0.2416" y="-2" relative="1" as="geometry">
            <mxPoint x="-1" as="offset" />
          </mxGeometry>
        </mxCell>
        <mxCell id="Y1dLoWXO-03WRQhrNPvf-58" value="&lt;font style=&quot;font-size: 10px;&quot;&gt;8&lt;/font&gt;" style="text;html=1;align=center;verticalAlign=middle;whiteSpace=wrap;rounded=0;rotation=0;" vertex="1" parent="1">
          <mxGeometry x="210" y="360" width="48.61" height="20" as="geometry" />
        </mxCell>
        <mxCell id="Y1dLoWXO-03WRQhrNPvf-66" value="" style="endArrow=none;html=1;rounded=0;fillColor=#e1d5e7;strokeColor=#000000;exitDx=0;exitDy=0;" edge="1" source="Y1dLoWXO-03WRQhrNPvf-67" parent="1">
          <mxGeometry width="50" height="50" relative="1" as="geometry">
            <mxPoint x="309.87" y="370" as="sourcePoint" />
            <mxPoint x="40" y="358" as="targetPoint" />
          </mxGeometry>
        </mxCell>
        <mxCell id="Y1dLoWXO-03WRQhrNPvf-68" value="" style="endArrow=none;html=1;rounded=0;fillColor=#e1d5e7;strokeColor=#000000;exitX=0.741;exitY=0.001;exitDx=0;exitDy=0;exitPerimeter=0;" edge="1" parent="1" source="Y1dLoWXO-03WRQhrNPvf-47" target="Y1dLoWXO-03WRQhrNPvf-67">
          <mxGeometry width="50" height="50" relative="1" as="geometry">
            <mxPoint x="76" y="358" as="sourcePoint" />
            <mxPoint x="40" y="358" as="targetPoint" />
          </mxGeometry>
        </mxCell>
        <mxCell id="Y1dLoWXO-03WRQhrNPvf-67" value="" style="shape=waypoint;sketch=0;fillStyle=solid;size=6;pointerEvents=1;points=[];fillColor=#e1d5e7;resizable=0;rotatable=0;perimeter=centerPerimeter;snapToPoint=1;strokeColor=#000000;" vertex="1" parent="1">
          <mxGeometry x="30" y="350" width="20" height="20" as="geometry" />
        </mxCell>
        <mxCell id="Y1dLoWXO-03WRQhrNPvf-69" value="RXD" style="text;html=1;align=center;verticalAlign=middle;whiteSpace=wrap;rounded=0;" vertex="1" parent="1">
          <mxGeometry x="40" y="340" width="40" height="20" as="geometry" />
        </mxCell>
        <mxCell id="Y1dLoWXO-03WRQhrNPvf-71" value="" style="endArrow=classic;html=1;rounded=0;exitX=1;exitY=0.25;exitDx=0;exitDy=0;entryX=0.25;entryY=1;entryDx=0;entryDy=0;" edge="1" parent="1" source="Y1dLoWXO-03WRQhrNPvf-36" target="Y1dLoWXO-03WRQhrNPvf-37">
          <mxGeometry width="50" height="50" relative="1" as="geometry">
            <mxPoint x="230" y="630" as="sourcePoint" />
            <mxPoint x="280" y="600" as="targetPoint" />
            <Array as="points">
              <mxPoint x="296" y="560" />
            </Array>
          </mxGeometry>
        </mxCell>
        <mxCell id="Y1dLoWXO-03WRQhrNPvf-72" value="" style="endArrow=classic;html=1;rounded=0;exitX=1;exitY=0.75;exitDx=0;exitDy=0;" edge="1" parent="1" source="Y1dLoWXO-03WRQhrNPvf-36">
          <mxGeometry width="50" height="50" relative="1" as="geometry">
            <mxPoint x="240" y="630" as="sourcePoint" />
            <mxPoint x="441" y="610" as="targetPoint" />
            <Array as="points">
              <mxPoint x="270" y="600" />
              <mxPoint x="270" y="610" />
            </Array>
          </mxGeometry>
        </mxCell>
        <mxCell id="Y1dLoWXO-03WRQhrNPvf-73" value="" style="endArrow=classic;html=1;rounded=0;exitX=0.74;exitY=0.995;exitDx=0;exitDy=0;entryX=0;entryY=0.25;entryDx=0;entryDy=0;exitPerimeter=0;" edge="1" parent="1" source="Y1dLoWXO-03WRQhrNPvf-47" target="Y1dLoWXO-03WRQhrNPvf-37">
          <mxGeometry width="50" height="50" relative="1" as="geometry">
            <mxPoint x="200" y="620" as="sourcePoint" />
            <mxPoint x="250" y="570" as="targetPoint" />
            <Array as="points">
              <mxPoint x="250" y="360" />
              <mxPoint x="250" y="350" />
            </Array>
          </mxGeometry>
        </mxCell>
        <mxCell id="Y1dLoWXO-03WRQhrNPvf-76" value="//" style="edgeLabel;html=1;align=center;verticalAlign=middle;resizable=0;points=[];" vertex="1" connectable="0" parent="Y1dLoWXO-03WRQhrNPvf-73">
          <mxGeometry x="0.0895" relative="1" as="geometry">
            <mxPoint as="offset" />
          </mxGeometry>
        </mxCell>
        <mxCell id="Y1dLoWXO-03WRQhrNPvf-74" value="" style="endArrow=classic;html=1;rounded=0;entryX=0.367;entryY=0.011;entryDx=0;entryDy=0;entryPerimeter=0;exitX=-0.003;exitY=0.673;exitDx=0;exitDy=0;exitPerimeter=0;" edge="1" parent="1" source="Y1dLoWXO-03WRQhrNPvf-47" target="Y1dLoWXO-03WRQhrNPvf-36">
          <mxGeometry width="50" height="50" relative="1" as="geometry">
            <mxPoint x="160" y="490" as="sourcePoint" />
            <mxPoint x="450" y="510" as="targetPoint" />
          </mxGeometry>
        </mxCell>
        <mxCell id="Y1dLoWXO-03WRQhrNPvf-75" value="RDA" style="text;html=1;align=center;verticalAlign=middle;whiteSpace=wrap;rounded=0;rotation=-90;" vertex="1" parent="1">
          <mxGeometry x="118.05000000000003" y="495" width="60" height="20" as="geometry" />
        </mxCell>
        <mxCell id="Y1dLoWXO-03WRQhrNPvf-85" value="rst" style="text;html=1;align=center;verticalAlign=middle;whiteSpace=wrap;rounded=0;" vertex="1" parent="1">
          <mxGeometry x="320" y="480" width="60" height="20" as="geometry" />
        </mxCell>
      </root>
    </mxGraphModel>
  </diagram>
</mxfile>
